<svg width="22" height="22" viewBox="0 0 22 22" fill="none" xmlns="http://www.w3.org/2000/svg">
<path d="M4.99997 13.4001L2.59997 13.4001C1.93723 13.4001 1.39997 12.8628 1.39997 12.2001L1.39997 3.4001C1.39997 2.29553 2.29541 1.4001 3.39997 1.4001L12.2 1.4001C12.8627 1.4001 13.4 1.93736 13.4 2.6001L13.4 5.0001M11 20.6001L18.2 20.6001C19.5255 20.6001 20.6 19.5256 20.6 18.2001L20.6 11.0001C20.6 9.67462 19.5255 8.6001 18.2 8.6001L11 8.6001C9.67449 8.6001 8.59997 9.67462 8.59997 11.0001L8.59997 18.2001C8.59997 19.5256 9.67449 20.6001 11 20.6001Z" stroke="#4169E1" stroke-width="1.5" stroke-linecap="round"/>
</svg>